<svg width="434" height="90" viewBox="0 0 434 90" fill="none" xmlns="http://www.w3.org/2000/svg">
<rect width="434" height="90" rx="45" fill="white"/>
<path d="M63.2983 50.2133H55.5383L54.205 54H51.0317L57.6717 35.44H61.1917L67.8317 54H64.6317L63.2983 50.2133ZM62.445 47.7333L59.4317 39.12L56.3917 47.7333H62.445ZM84.0254 39.3067V54H80.9854V52.2667C80.5054 52.8711 79.8743 53.3511 79.0921 53.7067C78.3276 54.0444 77.5099 54.2133 76.6388 54.2133C75.4832 54.2133 74.4432 53.9733 73.5188 53.4933C72.6121 53.0133 71.8921 52.3022 71.3588 51.36C70.8432 50.4178 70.5854 49.28 70.5854 47.9467V39.3067H73.5988V47.4933C73.5988 48.8089 73.9276 49.8222 74.5854 50.5333C75.2432 51.2267 76.141 51.5733 77.2788 51.5733C78.4165 51.5733 79.3143 51.2267 79.9721 50.5333C80.6476 49.8222 80.9854 48.8089 80.9854 47.4933V39.3067H84.0254ZM91.5831 41.7867V49.92C91.5831 50.4711 91.7076 50.8711 91.9565 51.12C92.2231 51.3511 92.6676 51.4667 93.2898 51.4667H95.1565V54H92.7565C91.3876 54 90.3387 53.68 89.6098 53.04C88.8809 52.4 88.5165 51.36 88.5165 49.92V41.7867H86.7831V39.3067H88.5165V35.6533H91.5831V39.3067H95.1565V41.7867H91.5831ZM104.332 54.24C102.945 54.24 101.692 53.9289 100.572 53.3067C99.4517 52.6667 98.5717 51.7778 97.9317 50.64C97.2917 49.4844 96.9717 48.1511 96.9717 46.64C96.9717 45.1467 97.3006 43.8222 97.9583 42.6667C98.6161 41.5111 99.5139 40.6222 100.652 40C101.789 39.3778 103.061 39.0667 104.465 39.0667C105.869 39.0667 107.141 39.3778 108.278 40C109.416 40.6222 110.314 41.5111 110.972 42.6667C111.629 43.8222 111.958 45.1467 111.958 46.64C111.958 48.1333 111.621 49.4578 110.945 50.6133C110.269 51.7689 109.345 52.6667 108.172 53.3067C107.016 53.9289 105.736 54.24 104.332 54.24ZM104.332 51.6C105.114 51.6 105.843 51.4133 106.518 51.04C107.212 50.6667 107.772 50.1067 108.198 49.36C108.625 48.6133 108.838 47.7067 108.838 46.64C108.838 45.5733 108.634 44.6756 108.225 43.9467C107.816 43.2 107.274 42.64 106.598 42.2667C105.923 41.8933 105.194 41.7067 104.412 41.7067C103.629 41.7067 102.901 41.8933 102.225 42.2667C101.567 42.64 101.043 43.2 100.652 43.9467C100.261 44.6756 100.065 45.5733 100.065 46.64C100.065 48.2222 100.465 49.4489 101.265 50.32C102.083 51.1733 103.105 51.6 104.332 51.6ZM132.75 39.0667C133.906 39.0667 134.937 39.3067 135.844 39.7867C136.768 40.2667 137.488 40.9778 138.004 41.92C138.537 42.8622 138.804 44 138.804 45.3333V54H135.79V45.7867C135.79 44.4711 135.461 43.4667 134.804 42.7733C134.146 42.0622 133.248 41.7067 132.11 41.7067C130.972 41.7067 130.066 42.0622 129.39 42.7733C128.732 43.4667 128.404 44.4711 128.404 45.7867V54H125.39V45.7867C125.39 44.4711 125.061 43.4667 124.404 42.7733C123.746 42.0622 122.848 41.7067 121.71 41.7067C120.572 41.7067 119.666 42.0622 118.99 42.7733C118.332 43.4667 118.004 44.4711 118.004 45.7867V54H114.964V39.3067H118.004V40.9867C118.501 40.3822 119.132 39.9111 119.897 39.5733C120.661 39.2356 121.479 39.0667 122.35 39.0667C123.524 39.0667 124.572 39.3156 125.497 39.8133C126.421 40.3111 127.132 41.0311 127.63 41.9733C128.075 41.0844 128.768 40.3822 129.71 39.8667C130.652 39.3333 131.666 39.0667 132.75 39.0667ZM141.659 46.5867C141.659 45.1111 141.961 43.8044 142.565 42.6667C143.187 41.5289 144.023 40.6489 145.072 40.0267C146.139 39.3867 147.312 39.0667 148.592 39.0667C149.747 39.0667 150.752 39.2978 151.605 39.76C152.476 40.2044 153.17 40.7644 153.685 41.44V39.3067H156.752V54H153.685V51.8133C153.17 52.5067 152.467 53.0844 151.579 53.5467C150.69 54.0089 149.676 54.24 148.539 54.24C147.276 54.24 146.121 53.92 145.072 53.28C144.023 52.6222 143.187 51.7156 142.565 50.56C141.961 49.3867 141.659 48.0622 141.659 46.5867ZM153.685 46.64C153.685 45.6267 153.472 44.7467 153.045 44C152.636 43.2533 152.094 42.6844 151.419 42.2933C150.743 41.9022 150.014 41.7067 149.232 41.7067C148.45 41.7067 147.721 41.9022 147.045 42.2933C146.37 42.6667 145.819 43.2267 145.392 43.9733C144.983 44.7022 144.779 45.5733 144.779 46.5867C144.779 47.6 144.983 48.4889 145.392 49.2533C145.819 50.0178 146.37 50.6044 147.045 51.0133C147.739 51.4044 148.467 51.6 149.232 51.6C150.014 51.6 150.743 51.4044 151.419 51.0133C152.094 50.6222 152.636 50.0533 153.045 49.3067C153.472 48.5422 153.685 47.6533 153.685 46.64ZM164.291 41.7867V49.92C164.291 50.4711 164.416 50.8711 164.665 51.12C164.931 51.3511 165.376 51.4667 165.998 51.4667H167.865V54H165.465C164.096 54 163.047 53.68 162.318 53.04C161.589 52.4 161.225 51.36 161.225 49.92V41.7867H159.491V39.3067H161.225V35.6533H164.291V39.3067H167.865V41.7867H164.291ZM184.133 46.2933C184.133 46.8444 184.098 47.3422 184.027 47.7867H172.8C172.889 48.96 173.324 49.9022 174.107 50.6133C174.889 51.3244 175.849 51.68 176.987 51.68C178.622 51.68 179.778 50.9956 180.453 49.6267H183.733C183.289 50.9778 182.48 52.0889 181.307 52.96C180.151 53.8133 178.711 54.24 176.987 54.24C175.582 54.24 174.32 53.9289 173.2 53.3067C172.098 52.6667 171.227 51.7778 170.587 50.64C169.964 49.4844 169.653 48.1511 169.653 46.64C169.653 45.1289 169.956 43.8044 170.56 42.6667C171.182 41.5111 172.044 40.6222 173.147 40C174.267 39.3778 175.547 39.0667 176.987 39.0667C178.373 39.0667 179.609 39.3689 180.693 39.9733C181.778 40.5778 182.622 41.4311 183.227 42.5333C183.831 43.6178 184.133 44.8711 184.133 46.2933ZM180.96 45.3333C180.942 44.2133 180.542 43.3156 179.76 42.64C178.978 41.9644 178.009 41.6267 176.853 41.6267C175.804 41.6267 174.907 41.9644 174.16 42.64C173.413 43.2978 172.969 44.1956 172.827 45.3333H180.96ZM186.112 46.5867C186.112 45.1111 186.414 43.8044 187.018 42.6667C187.641 41.5289 188.476 40.6489 189.525 40.0267C190.592 39.3867 191.774 39.0667 193.072 39.0667C194.032 39.0667 194.974 39.28 195.898 39.7067C196.841 40.1156 197.587 40.6667 198.138 41.36V34.2667H201.205V54H198.138V51.7867C197.641 52.4978 196.947 53.0844 196.058 53.5467C195.187 54.0089 194.183 54.24 193.045 54.24C191.765 54.24 190.592 53.92 189.525 53.28C188.476 52.6222 187.641 51.7156 187.018 50.56C186.414 49.3867 186.112 48.0622 186.112 46.5867ZM198.138 46.64C198.138 45.6267 197.925 44.7467 197.498 44C197.089 43.2533 196.547 42.6844 195.872 42.2933C195.196 41.9022 194.467 41.7067 193.685 41.7067C192.903 41.7067 192.174 41.9022 191.498 42.2933C190.823 42.6667 190.272 43.2267 189.845 43.9733C189.436 44.7022 189.232 45.5733 189.232 46.5867C189.232 47.6 189.436 48.4889 189.845 49.2533C190.272 50.0178 190.823 50.6044 191.498 51.0133C192.192 51.4044 192.921 51.6 193.685 51.6C194.467 51.6 195.196 51.4044 195.872 51.0133C196.547 50.6222 197.089 50.0533 197.498 49.3067C197.925 48.5422 198.138 47.6533 198.138 46.64ZM222.045 44.48C223.041 44.6578 223.885 45.1822 224.578 46.0533C225.272 46.9244 225.618 47.9111 225.618 49.0133C225.618 49.9556 225.369 50.8089 224.872 51.5733C224.392 52.32 223.689 52.9156 222.765 53.36C221.841 53.7867 220.765 54 219.538 54H212.125V35.4667H219.192C220.454 35.4667 221.538 35.68 222.445 36.1067C223.352 36.5333 224.036 37.1111 224.498 37.84C224.961 38.5511 225.192 39.3511 225.192 40.24C225.192 41.3067 224.907 42.1956 224.338 42.9067C223.769 43.6178 223.005 44.1422 222.045 44.48ZM215.165 43.2533H218.925C219.921 43.2533 220.694 43.0311 221.245 42.5867C221.814 42.1244 222.098 41.4667 222.098 40.6133C222.098 39.7778 221.814 39.1289 221.245 38.6667C220.694 38.1867 219.921 37.9467 218.925 37.9467H215.165V43.2533ZM219.272 51.52C220.303 51.52 221.112 51.2711 221.698 50.7733C222.285 50.2756 222.578 49.5822 222.578 48.6933C222.578 47.7867 222.267 47.0667 221.645 46.5333C221.023 46 220.196 45.7333 219.165 45.7333H215.165V51.52H219.272ZM235.295 54.24C233.909 54.24 232.655 53.9289 231.535 53.3067C230.415 52.6667 229.535 51.7778 228.895 50.64C228.255 49.4844 227.935 48.1511 227.935 46.64C227.935 45.1467 228.264 43.8222 228.922 42.6667C229.58 41.5111 230.477 40.6222 231.615 40C232.753 39.3778 234.024 39.0667 235.429 39.0667C236.833 39.0667 238.104 39.3778 239.242 40C240.38 40.6222 241.277 41.5111 241.935 42.6667C242.593 43.8222 242.922 45.1467 242.922 46.64C242.922 48.1333 242.584 49.4578 241.909 50.6133C241.233 51.7689 240.309 52.6667 239.135 53.3067C237.98 53.9289 236.7 54.24 235.295 54.24ZM235.295 51.6C236.077 51.6 236.806 51.4133 237.482 51.04C238.175 50.6667 238.735 50.1067 239.162 49.36C239.589 48.6133 239.802 47.7067 239.802 46.64C239.802 45.5733 239.597 44.6756 239.189 43.9467C238.78 43.2 238.237 42.64 237.562 42.2667C236.886 41.8933 236.157 41.7067 235.375 41.7067C234.593 41.7067 233.864 41.8933 233.189 42.2667C232.531 42.64 232.006 43.2 231.615 43.9467C231.224 44.6756 231.029 45.5733 231.029 46.64C231.029 48.2222 231.429 49.4489 232.229 50.32C233.046 51.1733 234.069 51.6 235.295 51.6ZM252.3 54.24C250.914 54.24 249.66 53.9289 248.54 53.3067C247.42 52.6667 246.54 51.7778 245.9 50.64C245.26 49.4844 244.94 48.1511 244.94 46.64C244.94 45.1467 245.269 43.8222 245.927 42.6667C246.585 41.5111 247.483 40.6222 248.62 40C249.758 39.3778 251.029 39.0667 252.434 39.0667C253.838 39.0667 255.109 39.3778 256.247 40C257.385 40.6222 258.283 41.5111 258.94 42.6667C259.598 43.8222 259.927 45.1467 259.927 46.64C259.927 48.1333 259.589 49.4578 258.914 50.6133C258.238 51.7689 257.314 52.6667 256.14 53.3067C254.985 53.9289 253.705 54.24 252.3 54.24ZM252.3 51.6C253.083 51.6 253.812 51.4133 254.487 51.04C255.18 50.6667 255.74 50.1067 256.167 49.36C256.594 48.6133 256.807 47.7067 256.807 46.64C256.807 45.5733 256.603 44.6756 256.194 43.9467C255.785 43.2 255.243 42.64 254.567 42.2667C253.892 41.8933 253.163 41.7067 252.38 41.7067C251.598 41.7067 250.869 41.8933 250.194 42.2667C249.536 42.64 249.012 43.2 248.62 43.9467C248.229 44.6756 248.034 45.5733 248.034 46.64C248.034 48.2222 248.434 49.4489 249.234 50.32C250.052 51.1733 251.074 51.6 252.3 51.6ZM268.746 46.6667L275.519 54H271.412L265.972 47.68V54H262.932V34.2667H265.972V45.7333L271.306 39.3067H275.519L268.746 46.6667ZM283.511 46.6667L290.285 54H286.178L280.738 47.68V54H277.698V34.2667H280.738V45.7333L286.071 39.3067H290.285L283.511 46.6667ZM305.93 46.2933C305.93 46.8444 305.895 47.3422 305.824 47.7867H294.597C294.686 48.96 295.121 49.9022 295.904 50.6133C296.686 51.3244 297.646 51.68 298.784 51.68C300.419 51.68 301.575 50.9956 302.25 49.6267H305.53C305.086 50.9778 304.277 52.0889 303.104 52.96C301.948 53.8133 300.508 54.24 298.784 54.24C297.379 54.24 296.117 53.9289 294.997 53.3067C293.895 52.6667 293.024 51.7778 292.384 50.64C291.761 49.4844 291.45 48.1511 291.45 46.64C291.45 45.1289 291.752 43.8044 292.357 42.6667C292.979 41.5111 293.841 40.6222 294.944 40C296.064 39.3778 297.344 39.0667 298.784 39.0667C300.17 39.0667 301.406 39.3689 302.49 39.9733C303.575 40.5778 304.419 41.4311 305.024 42.5333C305.628 43.6178 305.93 44.8711 305.93 46.2933ZM302.757 45.3333C302.739 44.2133 302.339 43.3156 301.557 42.64C300.775 41.9644 299.806 41.6267 298.65 41.6267C297.601 41.6267 296.704 41.9644 295.957 42.64C295.21 43.2978 294.766 44.1956 294.624 45.3333H302.757ZM322.389 46.2933C322.389 46.8444 322.353 47.3422 322.282 47.7867H311.055C311.144 48.96 311.58 49.9022 312.362 50.6133C313.144 51.3244 314.104 51.68 315.242 51.68C316.877 51.68 318.033 50.9956 318.709 49.6267H321.989C321.544 50.9778 320.735 52.0889 319.562 52.96C318.406 53.8133 316.966 54.24 315.242 54.24C313.837 54.24 312.575 53.9289 311.455 53.3067C310.353 52.6667 309.482 51.7778 308.842 50.64C308.22 49.4844 307.909 48.1511 307.909 46.64C307.909 45.1289 308.211 43.8044 308.815 42.6667C309.437 41.5111 310.3 40.6222 311.402 40C312.522 39.3778 313.802 39.0667 315.242 39.0667C316.629 39.0667 317.864 39.3689 318.949 39.9733C320.033 40.5778 320.877 41.4311 321.482 42.5333C322.086 43.6178 322.389 44.8711 322.389 46.2933ZM319.215 45.3333C319.197 44.2133 318.797 43.3156 318.015 42.64C317.233 41.9644 316.264 41.6267 315.109 41.6267C314.06 41.6267 313.162 41.9644 312.415 42.64C311.669 43.2978 311.224 44.1956 311.082 45.3333H319.215ZM328.42 41.4667C328.936 40.7911 329.638 40.2222 330.527 39.76C331.416 39.2978 332.42 39.0667 333.54 39.0667C334.82 39.0667 335.985 39.3867 337.034 40.0267C338.1 40.6489 338.936 41.5289 339.54 42.6667C340.145 43.8044 340.447 45.1111 340.447 46.5867C340.447 48.0622 340.145 49.3867 339.54 50.56C338.936 51.7156 338.1 52.6222 337.034 53.28C335.985 53.92 334.82 54.24 333.54 54.24C332.42 54.24 331.425 54.0178 330.554 53.5733C329.682 53.1111 328.971 52.5422 328.42 51.8667V60.9867H325.38V39.3067H328.42V41.4667ZM337.354 46.5867C337.354 45.5733 337.14 44.7022 336.714 43.9733C336.305 43.2267 335.754 42.6667 335.06 42.2933C334.385 41.9022 333.656 41.7067 332.874 41.7067C332.109 41.7067 331.38 41.9022 330.687 42.2933C330.011 42.6844 329.46 43.2533 329.034 44C328.625 44.7467 328.42 45.6267 328.42 46.64C328.42 47.6533 328.625 48.5422 329.034 49.3067C329.46 50.0533 330.011 50.6222 330.687 51.0133C331.38 51.4044 332.109 51.6 332.874 51.6C333.656 51.6 334.385 51.4044 335.06 51.0133C335.754 50.6044 336.305 50.0178 336.714 49.2533C337.14 48.4889 337.354 47.6 337.354 46.5867ZM345 37.36C344.449 37.36 343.986 37.1733 343.613 36.8C343.24 36.4267 343.053 35.9644 343.053 35.4133C343.053 34.8622 343.24 34.4 343.613 34.0267C343.986 33.6533 344.449 33.4667 345 33.4667C345.533 33.4667 345.986 33.6533 346.36 34.0267C346.733 34.4 346.92 34.8622 346.92 35.4133C346.92 35.9644 346.733 36.4267 346.36 36.8C345.986 37.1733 345.533 37.36 345 37.36ZM346.493 39.3067V54H343.453V39.3067H346.493ZM357.898 39.0667C359.053 39.0667 360.084 39.3067 360.991 39.7867C361.915 40.2667 362.635 40.9778 363.151 41.92C363.667 42.8622 363.924 44 363.924 45.3333V54H360.911V45.7867C360.911 44.4711 360.582 43.4667 359.924 42.7733C359.267 42.0622 358.369 41.7067 357.231 41.7067C356.093 41.7067 355.187 42.0622 354.511 42.7733C353.853 43.4667 353.524 44.4711 353.524 45.7867V54H350.484V39.3067H353.524V40.9867C354.022 40.3822 354.653 39.9111 355.418 39.5733C356.2 39.2356 357.027 39.0667 357.898 39.0667ZM373.722 39.0667C374.86 39.0667 375.864 39.2978 376.735 39.76C377.624 40.2044 378.318 40.7644 378.815 41.44V39.3067H381.882V54.24C381.882 55.5911 381.598 56.7911 381.029 57.84C380.46 58.9067 379.633 59.7422 378.549 60.3467C377.482 60.9511 376.202 61.2533 374.709 61.2533C372.718 61.2533 371.064 60.7822 369.749 59.84C368.433 58.9156 367.687 57.6533 367.509 56.0533H370.522C370.753 56.8178 371.242 57.4311 371.989 57.8933C372.753 58.3733 373.66 58.6133 374.709 58.6133C375.935 58.6133 376.922 58.24 377.669 57.4933C378.433 56.7467 378.815 55.6622 378.815 54.24V51.7867C378.3 52.48 377.598 53.0667 376.709 53.5467C375.838 54.0089 374.842 54.24 373.722 54.24C372.442 54.24 371.269 53.92 370.202 53.28C369.153 52.6222 368.318 51.7156 367.695 50.56C367.091 49.3867 366.789 48.0622 366.789 46.5867C366.789 45.1111 367.091 43.8044 367.695 42.6667C368.318 41.5289 369.153 40.6489 370.202 40.0267C371.269 39.3867 372.442 39.0667 373.722 39.0667ZM378.815 46.64C378.815 45.6267 378.602 44.7467 378.175 44C377.767 43.2533 377.224 42.6844 376.549 42.2933C375.873 41.9022 375.144 41.7067 374.362 41.7067C373.58 41.7067 372.851 41.9022 372.175 42.2933C371.5 42.6667 370.949 43.2267 370.522 43.9733C370.113 44.7022 369.909 45.5733 369.909 46.5867C369.909 47.6 370.113 48.4889 370.522 49.2533C370.949 50.0178 371.5 50.6044 372.175 51.0133C372.869 51.4044 373.598 51.6 374.362 51.6C375.144 51.6 375.873 51.4044 376.549 51.0133C377.224 50.6222 377.767 50.0533 378.175 49.3067C378.602 48.5422 378.815 47.6533 378.815 46.64Z" fill="black"/>
</svg>
